<?xml version="1.0" encoding="utf-8"?>
<!-- Generator: Adobe Illustrator 21.1.0, SVG Export Plug-In . SVG Version: 6.00 Build 0)  -->
<svg version="1.1" id="bg_x5F_1" xmlns="http://www.w3.org/2000/svg" xmlns:xlink="http://www.w3.org/1999/xlink" x="0px" y="0px"
	 viewBox="0 0 25 25" style="enable-background:new 0 0 25 25;" xml:space="preserve">
<style type="text/css">
	.st0{fill:#ED1E79;}
</style>
<g>
	<g>
		<path class="st0" d="M12.5,8.5C10,8.5,8,10.5,8,13c0,2.4,2,4.4,4.5,4.4c2.5,0,4.5-2,4.5-4.4C17,10.5,15,8.5,12.5,8.5z"/>
		<path class="st0" d="M17.5,0H7.5C3.4,0,0,3.3,0,7.4v10.1C0,21.7,3.4,25,7.5,25h9.9c4.2,0,7.5-3.3,7.5-7.4V7.4
			C25,3.3,21.6,0,17.5,0z M12.5,19.3c-3.5,0-6.4-2.8-6.4-6.4c0-3.5,2.9-6.4,6.4-6.4c3.5,0,6.4,2.8,6.4,6.4
			C18.9,16.5,16,19.3,12.5,19.3z M19.6,7.1c-0.9,0-1.6-0.7-1.6-1.6c0-0.9,0.7-1.6,1.6-1.6c0.9,0,1.6,0.7,1.6,1.6
			C21.2,6.4,20.5,7.1,19.6,7.1z"/>
	</g>
</g>
</svg>
