<?xml version="1.0" encoding="utf-8"?>
<!-- Generator: Adobe Illustrator 21.1.0, SVG Export Plug-In . SVG Version: 6.00 Build 0)  -->
<svg version="1.1" id="bg_x5F_1" xmlns="http://www.w3.org/2000/svg" xmlns:xlink="http://www.w3.org/1999/xlink" x="0px" y="0px"
	 viewBox="0 0 35 21" style="enable-background:new 0 0 35 21;" xml:space="preserve">
<style type="text/css">
	.st0{fill:#ED1E79;}
</style>
<path class="st0" d="M21.4,9.4v-8C21.4,0.6,20.7,0,20,0h-6c-0.6,0-1,0.6-0.8,1.1L14,2.5c0.4,0.6,0.6,1.4,0.6,2.1v6.5
	c0,0.5-0.6,0.9-1.1,0.6C10.2,9.7,7.8,3.3,7,0.9C6.8,0.4,6.2,0,5.6,0L1.1,0C0.3,0-0.2,0.7,0,1.3C5.9,19.7,16.3,21.1,20,21
	c0.8,0,1.4-0.6,1.4-1.4v-4.3c0-0.4,0.3-0.7,0.7-0.7c0,0,0.1,0,0.1,0c2,0,5.1,4.4,6.2,5.7c0.3,0.3,0.7,0.5,1.1,0.5h4.1
	c1.1,0,1.8-1.2,1.2-2.1c-1.1-1.6-3-4-6.1-6.9c-0.4-0.4-0.4-1-0.1-1.4c2.8-3.4,4.7-7,5.7-8.9c0.3-0.7-0.2-1.5-1-1.5l-4.2,0
	c-0.6,0-1.1,0.4-1.3,0.9c-2.2,5.5-4.7,7.9-5.9,8.7C21.7,9.8,21.4,9.7,21.4,9.4z"/>
</svg>
